<?xml version="1.0" encoding="UTF-8"?>
<!DOCTYPE svg PUBLIC "-//W3C//DTD SVG 1.1//EN" "http://www.w3.org/Graphics/SVG/1.1/DTD/svg11.dtd">
<!-- Creator: CorelDRAW -->
<svg xmlns="http://www.w3.org/2000/svg" xml:space="preserve" width="160px" height="320px" style="shape-rendering:geometricPrecision; text-rendering:geometricPrecision; image-rendering:optimizeQuality; fill-rule:evenodd; clip-rule:evenodd"
viewBox="0 0 160 320"
 xmlns:xlink="http://www.w3.org/1999/xlink"
 xmlns:dc="http://purl.org/dc/elements/1.1/"
 xmlns:cc="http://creativecommons.org/ns#"
 xmlns:rdf="http://www.w3.org/1999/02/22-rdf-syntax-ns#"
 xmlns:svg="http://www.w3.org/2000/svg"
 version="1.1">
 <defs>
  <style type="text/css">
   <![CDATA[
    .fil0 {fill:#446991;fill-rule:nonzero}
   ]]>
  </style>
 </defs>
 <g id="Capa_x0020_1">
  <metadata id="CorelCorpID_0Corel-Layer"/>
  <g id="_47817304">
   <g id="g4931">
    <path id="path4933" class="fil0" d="M80.0035 60.0464c13.4457,0 24.3521,-10.9028 24.3521,-24.3521 0,-13.4457 -10.9064,-24.3474 -24.3521,-24.3474 -13.4493,0 -24.3521,10.9028 -24.3521,24.3474 0,13.4493 10.9028,24.3521 24.3521,24.3521z"/>
   </g>
   <g id="g4935">
    <path id="path4937" class="fil0" d="M106.9 66.285c17.2265,0 31.336,13.9654 31.336,31.1954l0 75.5118c0,5.88664 -4.62876,10.6607 -10.5154,10.6607 -5.89019,0 -10.6642,-4.77404 -10.6642,-10.6607l0 -68.0862 -5.49215 0 0 189.462c0,7.89098 -6.45712,14.2855 -14.3481,14.2855 -7.89098,0 -14.2855,-6.39452 -14.2855,-14.2855l0 -110.017 -5.85593 0 0 110.017c0,7.89098 -6.39806,14.2855 -14.2855,14.2855 -7.89098,0 -14.2855,-6.39452 -14.2855,-14.2855 0,-11.6871 -0.125197,-189.462 -0.125197,-189.462l-5.42955 0 0 68.0862c0,5.88664 -4.77404,10.6607 -10.6642,10.6607 -5.88664,0 -10.5201,-4.77404 -10.5201,-10.6607l0 -75.5118c0,-17.23 14.1131,-31.1954 31.3395,-31.1954l53.7959 0z"/>
   </g>
  </g>
 </g>
</svg>
