<?xml version="1.0" encoding="utf-8"?>
<!-- Generator: Adobe Illustrator 16.0.0, SVG Export Plug-In . SVG Version: 6.00 Build 0)  -->
<!DOCTYPE svg PUBLIC "-//W3C//DTD SVG 1.1//EN" "http://www.w3.org/Graphics/SVG/1.1/DTD/svg11.dtd">
<svg version="1.1" id="Layer_1" xmlns="http://www.w3.org/2000/svg" xmlns:xlink="http://www.w3.org/1999/xlink" x="0px" y="0px"
	 width="233.083px" height="83.763px" viewBox="0 0 233.083 83.763" enable-background="new 0 0 233.083 83.763"
	 xml:space="preserve">
<path fill="#D6117F" d="M71.728,35.186V19.708L46.907,6.601L42.529,4.29L34.406,0v54.024v9.426l37.322,19.709V67.68L46.907,54.573
	v-8.928L71.728,58.75V43.272L46.907,30.167V22.08L71.728,35.186z"/>
<path fill="#792982" d="M16.163,55.168V4.499L0,10.715v66.629l34.357-13.721V48.188L16.163,55.168z"/>
<path fill="#262251" d="M128.612,4.558h3.697v18.055h9.182v3.513h-12.879V4.558z"/>
<path fill="#262251" d="M153.444,17.468c-0.062-1.263-1.232-2.958-3.666-2.958c-2.373,0-3.451,1.664-3.574,2.958H153.444z
	 M157.141,18.762c0,0.278,0,0.832-0.031,1.387h-10.906c0.277,1.294,1.787,2.958,4.098,2.958c2.557,0,4.005-1.479,4.005-1.479
	l1.849,2.773c0,0-2.311,2.095-5.854,2.095c-4.437,0-7.857-3.389-7.857-7.672c0-4.283,3.112-7.672,7.334-7.672
	C153.783,11.151,157.141,14.264,157.141,18.762"/>
<path fill="#262251" d="M168.817,21.72v-1.51c0,0-1.325-0.739-3.328-0.739c-1.14,0-2.711,0.493-2.711,2.064
	c0,1.541,1.51,1.879,2.65,1.879C167.646,23.414,168.817,21.72,168.817,21.72 M172.514,16.605v9.521h-3.42v-1.849
	c0,0-1.51,2.218-4.807,2.218c-2.742,0-5.269-1.787-5.269-4.899c0-2.803,2.558-4.837,5.73-4.837c2.681,0,4.067,1.048,4.067,1.048
	v-0.833c0-1.91-1.849-2.526-3.143-2.526c-2.126,0-4.375,1.079-4.375,1.079l-1.202-3.05c0,0,2.712-1.325,5.762-1.325
	C170.049,11.152,172.514,13.278,172.514,16.605"/>
<path fill="#262251" d="M186.316,16.636c0,0-1.048-2.034-3.481-2.034c-2.496,0-4.006,1.818-4.006,4.221s1.51,4.221,4.006,4.221
	c2.434,0,3.481-2.034,3.481-2.034V16.636z M190.013,26.125h-3.42v-1.91c0,0-1.263,2.28-4.405,2.28c-3.791,0-7.118-3.174-7.118-7.672
	c0-4.499,3.327-7.672,7.118-7.672c2.772,0,4.128,1.911,4.128,1.911V2.832h3.697V26.125z"/>
<path fill="#262251" d="M194.571,11.521h3.698v14.604h-3.698V11.521z M196.42,4.373c1.355,0,2.434,1.079,2.434,2.435
	s-1.078,2.435-2.434,2.435c-1.356,0-2.435-1.079-2.435-2.435S195.064,4.373,196.42,4.373"/>
<path fill="#262251" d="M215.584,16.667v9.459h-3.697v-8.535c0-2.095-1.295-2.989-2.896-2.989c-1.91,0-2.896,1.88-2.896,1.88v9.643
	h-3.697V11.521h3.45v2.126c0,0,1.295-2.497,4.376-2.497C213.057,11.151,215.584,13.154,215.584,16.667"/>
<path fill="#262251" d="M229.385,16.636c0,0-1.047-2.034-3.481-2.034c-2.495,0-4.005,1.819-4.005,4.222
	c0,2.403,1.51,4.221,4.005,4.221c2.403,0,3.481-2.034,3.481-2.034V16.636z M225.256,26.495c-3.789,0-7.117-3.174-7.117-7.671
	c0-4.499,3.328-7.672,7.117-7.672c3.051,0,4.406,2.28,4.406,2.28v-1.91h3.42v14.727c0,5.084-3.759,7.333-7.856,7.333
	c-4.19,0-6.932-2.773-6.932-2.773l2.095-2.834c0,0,2.033,2.157,4.837,2.157c2.865,0,4.159-1.571,4.159-3.759v-1.756
	C228.893,25.232,227.569,26.495,225.256,26.495"/>
<path fill="#262251" d="M132.309,41.942h8.627v3.513h-8.627v5.792h9.551v3.512h-13.249V33.192h13.063v3.512h-9.365V41.942z"/>
<path fill="#262251" d="M155.107,45.27c0,0-1.048-2.034-3.481-2.034c-2.496,0-4.006,1.817-4.006,4.222
	c0,2.402,1.51,4.221,4.006,4.221c2.434,0,3.481-2.033,3.481-2.033V45.27z M158.804,54.759h-3.42V52.85c0,0-1.263,2.279-4.405,2.279
	c-3.791,0-7.118-3.174-7.118-7.672s3.327-7.673,7.118-7.673c2.772,0,4.128,1.911,4.128,1.911V31.466h3.697V54.759z"/>
<path fill="#262251" d="M173.038,45.27c0,0-1.048-2.033-3.482-2.033c-2.495,0-4.006,1.816-4.006,4.221
	c0,2.403,1.511,4.221,4.006,4.221c2.404,0,3.482-2.033,3.482-2.033V45.27z M168.909,55.129c-3.789,0-7.117-3.174-7.117-7.672
	c0-4.499,3.328-7.672,7.117-7.672c3.051,0,4.405,2.279,4.405,2.279v-1.91h3.421v14.728c0,5.083-3.76,7.332-7.857,7.332
	c-4.189,0-6.932-2.772-6.932-2.772l2.094-2.834c0,0,2.035,2.155,4.838,2.155c2.865,0,4.16-1.57,4.16-3.759V53.25
	C172.544,53.866,171.219,55.129,168.909,55.129"/>
<path fill="#262251" d="M190.29,46.102c-0.061-1.264-1.232-2.959-3.666-2.959c-2.373,0-3.45,1.664-3.574,2.959H190.29z
	 M193.988,47.396c0,0.276,0,0.831-0.031,1.386h-10.907c0.277,1.295,1.787,2.958,4.098,2.958c2.558,0,4.006-1.479,4.006-1.479
	L193,53.034c0,0-2.311,2.096-5.854,2.096c-4.436,0-7.856-3.39-7.856-7.672c0-4.283,3.112-7.672,7.333-7.672
	C190.629,39.785,193.988,42.897,193.988,47.396"/>
<path fill="#262251" d="M130.645,71.592h9.582v1.479h-9.582v10.321h-1.603V61.825h11.801v1.541h-10.198V71.592z"/>
<path fill="#262251" d="M155.2,76.369c0-3.174-1.972-5.823-5.484-5.823c-3.512,0-5.484,2.649-5.484,5.823
	c0,3.173,1.973,5.823,5.484,5.823C153.228,82.192,155.2,79.542,155.2,76.369 M156.864,76.369c0,4.067-2.957,7.395-7.148,7.395
	c-4.189,0-7.148-3.327-7.148-7.395s2.959-7.396,7.148-7.396C153.907,68.973,156.864,72.301,156.864,76.369"/>
<path fill="#262251" d="M167.769,69.344l-0.678,1.539c0,0-0.585-0.339-1.879-0.339c-2.435,0-3.575,2.712-3.575,2.712v10.137h-1.602
	V69.344h1.449v2.279c0,0,1.2-2.65,4.097-2.65C166.907,68.973,167.769,69.344,167.769,69.344"/>
<path fill="#262251" d="M170.018,78.309v-8.965h1.602v8.719c0,2.896,1.633,4.129,3.975,4.129c3.112,0,4.344-3.082,4.344-3.082
	v-9.766h1.604v14.05h-1.449v-2.497c0,0-1.355,2.866-4.807,2.866C172.606,83.763,170.018,82.129,170.018,78.309"/>
<path fill="#262251" d="M196.298,83.393h-1.603v-8.75c0-2.865-1.294-4.098-3.42-4.098c-2.65,0-3.852,2.711-3.852,2.711v10.137
	h-1.602V69.344h1.447v2.371c0,0,1.232-2.742,4.375-2.742c1.727,0,3.42,0.771,4.252,2.742c0.093-0.184,1.387-2.742,4.499-2.742
	c2.157,0,4.652,1.232,4.652,5.177v9.243h-1.603v-8.75c0-2.865-1.294-4.098-3.42-4.098c-2.649,0-3.728,2.711-3.728,2.711V83.393z"/>
<path fill="#262251" d="M110.193,24.838V5.182L71.777,19.802v0.213v19.442v6.836v17.021v20.107l16.315-6.055V57.26l22.101-8.564
	V33.813l-22.101,8.565v-8.975L110.193,24.838z"/>
</svg>
